<svg id="Capa_1" data-name="Capa 1" xmlns="http://www.w3.org/2000/svg" viewBox="0 0 20 20"><defs><style>.cls-1{fill:#47598a;}</style></defs><path class="cls-1" d="M6,5.18a.66.66,0,0,0-.92,0A4.48,4.48,0,0,0,3.84,8.8a.66.66,0,0,0,.65.59h.07a.65.65,0,0,0,.58-.72A3.17,3.17,0,0,1,6,6.11.65.65,0,0,0,6,5.18Z"/><path class="cls-1" d="M8.63,1.16A7.47,7.47,0,1,0,16.1,8.63,7.48,7.48,0,0,0,8.63,1.16Zm0,13.63a6.16,6.16,0,1,1,6.16-6.16A6.16,6.16,0,0,1,8.63,14.79Z"/><path class="cls-1" d="M18.65,17.72,13.9,13a.65.65,0,0,0-.92.92l4.74,4.75a.66.66,0,0,0,.93,0A.67.67,0,0,0,18.65,17.72Z"/></svg>