<?xml version="1.0" encoding="utf-8"?>
<!-- Generator: Adobe Illustrator 24.2.0, SVG Export Plug-In . SVG Version: 6.00 Build 0)  -->
<svg version="1.1" id="Capa_1" xmlns="http://www.w3.org/2000/svg" xmlns:xlink="http://www.w3.org/1999/xlink" x="0px" y="0px"
	 viewBox="0 0 24 24" style="enable-background:new 0 0 24 24;" xml:space="preserve">
<style type="text/css">
	.st0{fill:#FFFFFF;}
	.st1{fill:#0072C6;}
</style>
<path class="st0" d="M3.6,0h16.8c2,0,3.6,1.6,3.6,3.6v16.8c0,2-1.6,3.6-3.6,3.6H3.6c-2,0-3.6-1.6-3.6-3.6V3.6C0,1.6,1.6,0,3.6,0z"/>
<path class="st1" d="M15.3,12.2c0,0.4,2.8,0.8,4.7,0.7c0.9,0,0.8-1.5,0-1.5C19,11.3,15.2,11.8,15.3,12.2z M14.1,10.1
	c0.2,0.4,2.9-0.7,4.5-1.7c0.8-0.5,0-1.7-0.8-1.3C17,7.5,13.9,9.8,14.1,10.1z M14.2,14.1c-0.2,0.3,2,2.1,3.6,3
	c0.8,0.4,1.5-0.8,0.8-1.3S14.3,13.7,14.2,14.1z"/>
<path class="st1" d="M6.9,18.6c-0.2,0-0.5,0-0.7-0.1c-0.4-0.1-0.7-0.5-0.6-0.9c0.1-0.4,0.5-0.7,0.9-0.6c0.6,0.1,1.1,0,1.4-0.4
	C8.2,16.3,8.3,16,8.3,16l0,0L8.7,15L5.4,6.6c-0.2-0.4,0-0.9,0.4-1c0.4-0.2,0.9,0,1,0.4l2.7,6.8L12.3,6c0.2-0.4,0.6-0.6,1-0.4
	c0.4,0.2,0.6,0.6,0.4,1l-3.5,8.7l-0.5,1.3c0,0.1-0.1,0.2-0.2,0.4l-0.1,0.1l0,0C9.1,17.8,8.2,18.6,6.9,18.6z"/>
</svg>
